<svg width="200" height="200" viewBox="0 0 200 200" fill="none" xmlns="http://www.w3.org/2000/svg">
  <!-- Mother and baby icon -->
  <path d="M 100 20 Q 115 20 125 30 Q 135 40 135 55 Q 135 70 125 80 Q 115 90 100 90 Q 85 90 75 80 Q 65 70 65 55 Q 65 40 75 30 Q 85 20 100 20 Z" fill="none" stroke="#FF6B5A" stroke-width="3" stroke-linecap="round" stroke-linejoin="round"/>
  
  <!-- Mother's face and hair -->
  <path d="M 80 35 Q 75 35 72 38 Q 70 40 70 43 M 120 35 Q 125 35 128 38 Q 130 40 130 43" fill="none" stroke="#FF6B5A" stroke-width="2.5" stroke-linecap="round"/>
  
  <!-- Baby -->
  <path d="M 110 55 Q 118 55 122 60 Q 125 65 125 72 Q 125 82 118 88 Q 112 92 105 92 Q 100 92 97 90" fill="none" stroke="#FF6B5A" stroke-width="3" stroke-linecap="round" stroke-linejoin="round"/>
  
  <!-- Heart shape around them -->
  <path d="M 85 50 Q 75 50 70 60 Q 65 70 80 95 Q 100 115 100 115 Q 100 115 120 95 Q 135 70 130 60 Q 125 50 115 50 Q 105 50 100 58 Q 95 50 85 50 Z" fill="none" stroke="#FF6B5A" stroke-width="3" stroke-linecap="round" stroke-linejoin="round"/>
  
  <!-- Text -->
  <text x="100" y="145" font-size="28" font-weight="bold" fill="#FF6B5A" text-anchor="middle" font-family="Arial, sans-serif">MAMATVAM</text>
  <text x="100" y="170" font-size="10" fill="#FF6B5A" text-anchor="middle" font-family="Arial, sans-serif" letter-spacing="2">SCIENCE, SOUL &amp; SUPPORT</text>
</svg>